<svg width="226" height="38" viewBox="0 0 226 38" fill="none" xmlns="http://www.w3.org/2000/svg">
<path d="M51.168 30C50.9333 30 50.7413 29.9253 50.592 29.776C50.4427 29.6267 50.368 29.4347 50.368 29.2V8.4C50.368 8.16533 50.4427 7.97333 50.592 7.824C50.7413 7.67467 50.9333 7.6 51.168 7.6H65.664C65.8987 7.6 66.0907 7.67467 66.24 7.824C66.3893 7.97333 66.464 8.16533 66.464 8.4V10.96C66.464 11.1733 66.3893 11.3547 66.24 11.504C66.0907 11.6533 65.8987 11.728 65.664 11.728H55.296V16.752H64.96C65.1947 16.752 65.3867 16.8267 65.536 16.976C65.6853 17.1253 65.76 17.3173 65.76 17.552V19.92C65.76 20.1333 65.6853 20.3147 65.536 20.464C65.3867 20.6133 65.1947 20.688 64.96 20.688H55.296V25.872H65.92C66.1547 25.872 66.3467 25.9467 66.496 26.096C66.6453 26.2453 66.72 26.4373 66.72 26.672V29.2C66.72 29.4347 66.6453 29.6267 66.496 29.776C66.3467 29.9253 66.1547 30 65.92 30H51.168ZM72.6088 30C72.3741 30 72.1821 29.9253 72.0328 29.776C71.8834 29.6267 71.8088 29.4347 71.8088 29.2V17.136H69.3128C69.0781 17.136 68.8861 17.0613 68.7368 16.912C68.5874 16.7627 68.5128 16.5707 68.5128 16.336V14.16C68.5128 13.9253 68.5874 13.7333 68.7368 13.584C68.8861 13.4347 69.0781 13.36 69.3128 13.36H71.8088V12.208C71.8088 10.8427 72.0648 9.72267 72.5768 8.848C73.0888 7.97333 73.8354 7.33333 74.8168 6.928C75.7981 6.52267 77.0034 6.32 78.4328 6.32H80.7688C81.0034 6.32 81.1954 6.39467 81.3448 6.544C81.4941 6.69333 81.5688 6.88533 81.5688 7.12V9.296C81.5688 9.53067 81.4941 9.72267 81.3448 9.872C81.1954 10.0213 81.0034 10.096 80.7688 10.096H78.6248C77.8354 10.096 77.2808 10.288 76.9608 10.672C76.6621 11.056 76.5128 11.6213 76.5128 12.368V13.36H82.9768V12.208C82.9768 10.8427 83.2328 9.72267 83.7448 8.848C84.2568 7.97333 85.0034 7.33333 85.9848 6.928C86.9661 6.52267 88.1714 6.32 89.6008 6.32H91.9368C92.1501 6.32 92.3314 6.39467 92.4808 6.544C92.6301 6.69333 92.7048 6.88533 92.7048 7.12V9.296C92.7048 9.53067 92.6301 9.72267 92.4808 9.872C92.3314 10.0213 92.1501 10.096 91.9368 10.096H89.7928C89.0034 10.096 88.4488 10.288 88.1288 10.672C87.8301 11.056 87.6808 11.6213 87.6808 12.368V13.36H91.6168C91.8301 13.36 92.0114 13.4347 92.1608 13.584C92.3101 13.7333 92.3848 13.9253 92.3848 14.16V16.336C92.3848 16.5707 92.3101 16.7627 92.1608 16.912C92.0114 17.0613 91.8301 17.136 91.6168 17.136H87.6808V29.2C87.6808 29.4347 87.6061 29.6267 87.4568 29.776C87.3074 29.9253 87.1154 30 86.8808 30H83.7448C83.5314 30 83.3501 29.9253 83.2008 29.776C83.0514 29.6267 82.9768 29.4347 82.9768 29.2V17.136H76.5128V29.2C76.5128 29.4347 76.4381 29.6267 76.2888 29.776C76.1394 29.9253 75.9581 30 75.7448 30H72.6088ZM102.034 30.32C99.5804 30.32 97.6284 29.6373 96.1778 28.272C94.7484 26.9067 93.9911 24.9227 93.9058 22.32C93.9058 22.1493 93.9058 21.9253 93.9058 21.648C93.9058 21.3493 93.9058 21.1147 93.9058 20.944C93.9911 19.3013 94.3644 17.8933 95.0258 16.72C95.6871 15.5253 96.6151 14.6187 97.8098 14C99.0044 13.36 100.402 13.04 102.002 13.04C103.794 13.04 105.287 13.4133 106.482 14.16C107.698 14.8853 108.604 15.888 109.202 17.168C109.82 18.4267 110.13 19.8773 110.13 21.52V22.256C110.13 22.4693 110.044 22.6507 109.874 22.8C109.724 22.9493 109.543 23.024 109.33 23.024H98.8658C98.8658 23.0453 98.8658 23.088 98.8658 23.152C98.8658 23.1947 98.8658 23.2373 98.8658 23.28C98.8871 23.9627 99.0151 24.592 99.2498 25.168C99.5058 25.7227 99.8578 26.1707 100.306 26.512C100.775 26.8533 101.33 27.024 101.97 27.024C102.503 27.024 102.94 26.9493 103.282 26.8C103.623 26.6507 103.9 26.4693 104.114 26.256C104.348 26.0427 104.519 25.8613 104.626 25.712C104.818 25.4987 104.967 25.3707 105.074 25.328C105.202 25.264 105.394 25.232 105.65 25.232H108.978C109.191 25.232 109.362 25.296 109.49 25.424C109.639 25.5307 109.703 25.6907 109.682 25.904C109.66 26.2453 109.479 26.672 109.138 27.184C108.818 27.6747 108.338 28.1653 107.698 28.656C107.058 29.1253 106.258 29.52 105.298 29.84C104.359 30.16 103.271 30.32 102.034 30.32ZM98.8658 20.112H105.138V20.048C105.138 19.28 105.01 18.6187 104.754 18.064C104.519 17.488 104.167 17.04 103.698 16.72C103.228 16.4 102.663 16.24 102.002 16.24C101.34 16.24 100.775 16.4 100.306 16.72C99.8364 17.04 99.4738 17.488 99.2178 18.064C98.9831 18.6187 98.8658 19.28 98.8658 20.048V20.112ZM120.72 30.32C119.163 30.32 117.787 30.032 116.593 29.456C115.419 28.88 114.491 28.048 113.809 26.96C113.126 25.8507 112.753 24.528 112.689 22.992C112.667 22.6507 112.657 22.224 112.657 21.712C112.657 21.1787 112.667 20.7413 112.689 20.4C112.753 18.8427 113.115 17.52 113.777 16.432C114.459 15.3227 115.398 14.48 116.593 13.904C117.787 13.328 119.163 13.04 120.72 13.04C122.15 13.04 123.366 13.2427 124.369 13.648C125.371 14.032 126.193 14.5227 126.833 15.12C127.473 15.7173 127.942 16.3467 128.241 17.008C128.561 17.648 128.731 18.2133 128.753 18.704C128.774 18.9173 128.699 19.1093 128.529 19.28C128.379 19.4293 128.198 19.504 127.985 19.504H124.561C124.347 19.504 124.177 19.4507 124.049 19.344C123.942 19.216 123.835 19.0453 123.729 18.832C123.43 18.0853 123.046 17.552 122.577 17.232C122.107 16.912 121.521 16.752 120.817 16.752C119.857 16.752 119.099 17.0613 118.545 17.68C117.99 18.2987 117.691 19.2587 117.649 20.56C117.627 21.392 117.627 22.1493 117.649 22.832C117.713 24.1547 118.011 25.1147 118.545 25.712C119.099 26.3093 119.857 26.608 120.817 26.608C121.563 26.608 122.161 26.448 122.609 26.128C123.057 25.808 123.43 25.2747 123.729 24.528C123.814 24.3147 123.921 24.1547 124.049 24.048C124.177 23.92 124.347 23.856 124.561 23.856H127.985C128.198 23.856 128.379 23.9413 128.529 24.112C128.699 24.2613 128.774 24.4427 128.753 24.656C128.731 25.0187 128.625 25.4453 128.433 25.936C128.262 26.4267 127.974 26.928 127.569 27.44C127.185 27.952 126.683 28.432 126.065 28.88C125.446 29.3067 124.689 29.6587 123.793 29.936C122.918 30.192 121.894 30.32 120.72 30.32ZM139.891 30C138.568 30 137.438 29.7867 136.499 29.36C135.56 28.912 134.846 28.2293 134.355 27.312C133.886 26.3947 133.651 25.2427 133.651 23.856V17.136H131.155C130.92 17.136 130.728 17.0613 130.579 16.912C130.43 16.7627 130.355 16.5707 130.355 16.336V14.16C130.355 13.9253 130.43 13.7333 130.579 13.584C130.728 13.4347 130.92 13.36 131.155 13.36H133.651V8.08C133.651 7.84533 133.726 7.65333 133.875 7.504C134.046 7.35467 134.238 7.28 134.451 7.28H137.587C137.822 7.28 138.014 7.35467 138.163 7.504C138.312 7.65333 138.387 7.84533 138.387 8.08V13.36H142.387C142.6 13.36 142.782 13.4347 142.931 13.584C143.08 13.7333 143.155 13.9253 143.155 14.16V16.336C143.155 16.5707 143.08 16.7627 142.931 16.912C142.782 17.0613 142.6 17.136 142.387 17.136H138.387V23.472C138.387 24.2827 138.526 24.9227 138.803 25.392C139.102 25.84 139.614 26.064 140.339 26.064H142.675C142.888 26.064 143.07 26.1387 143.219 26.288C143.368 26.4373 143.443 26.6187 143.443 26.832V29.2C143.443 29.4347 143.368 29.6267 143.219 29.776C143.07 29.9253 142.888 30 142.675 30H139.891ZM152.795 30.32C151.472 30.32 150.331 30.1707 149.371 29.872C148.432 29.552 147.664 29.168 147.067 28.72C146.491 28.272 146.053 27.824 145.755 27.376C145.477 26.9067 145.328 26.512 145.307 26.192C145.285 25.9573 145.36 25.7653 145.531 25.616C145.701 25.4667 145.872 25.392 146.043 25.392H149.147C149.211 25.392 149.275 25.4027 149.339 25.424C149.403 25.4453 149.467 25.4987 149.531 25.584C149.808 25.776 150.096 26 150.395 26.256C150.693 26.4907 151.035 26.6933 151.419 26.864C151.824 27.0347 152.325 27.12 152.923 27.12C153.627 27.12 154.224 26.9813 154.715 26.704C155.205 26.4053 155.451 25.9893 155.451 25.456C155.451 25.072 155.333 24.752 155.099 24.496C154.885 24.24 154.469 24.0053 153.851 23.792C153.232 23.5787 152.315 23.344 151.099 23.088C149.947 22.832 148.965 22.4907 148.155 22.064C147.344 21.6373 146.736 21.104 146.331 20.464C145.925 19.8027 145.723 19.0133 145.723 18.096C145.723 17.264 145.979 16.464 146.491 15.696C147.024 14.928 147.803 14.2987 148.827 13.808C149.851 13.296 151.131 13.04 152.667 13.04C153.84 13.04 154.864 13.1893 155.739 13.488C156.635 13.7653 157.381 14.128 157.979 14.576C158.576 15.0027 159.024 15.4507 159.323 15.92C159.643 16.368 159.813 16.7627 159.835 17.104C159.856 17.3173 159.792 17.4987 159.643 17.648C159.493 17.7973 159.323 17.872 159.131 17.872H156.283C156.176 17.872 156.08 17.8613 155.995 17.84C155.909 17.7973 155.835 17.744 155.771 17.68C155.515 17.5093 155.248 17.3173 154.971 17.104C154.715 16.8693 154.405 16.6667 154.043 16.496C153.68 16.3253 153.211 16.24 152.635 16.24C151.931 16.24 151.387 16.4 151.003 16.72C150.64 17.0187 150.459 17.4027 150.459 17.872C150.459 18.1707 150.555 18.448 150.747 18.704C150.939 18.96 151.333 19.1947 151.931 19.408C152.528 19.6213 153.435 19.8453 154.651 20.08C156.101 20.336 157.253 20.72 158.107 21.232C158.96 21.744 159.568 22.3413 159.931 23.024C160.315 23.6853 160.507 24.4 160.507 25.168C160.507 26.1707 160.208 27.0667 159.611 27.856C159.013 28.624 158.139 29.232 156.987 29.68C155.856 30.1067 154.459 30.32 152.795 30.32ZM171.995 30.32C169.947 30.32 168.229 30.0213 166.843 29.424C165.477 28.8267 164.443 28.048 163.739 27.088C163.035 26.128 162.661 25.104 162.618 24.016C162.618 23.8453 162.683 23.696 162.811 23.568C162.939 23.4187 163.099 23.344 163.291 23.344H166.715C166.992 23.344 167.205 23.408 167.355 23.536C167.504 23.6427 167.643 23.7813 167.771 23.952C167.92 24.3147 168.155 24.6667 168.475 25.008C168.816 25.3493 169.275 25.6373 169.851 25.872C170.427 26.0853 171.141 26.192 171.995 26.192C173.381 26.192 174.416 25.968 175.099 25.52C175.803 25.072 176.155 24.464 176.155 23.696C176.155 23.1413 175.963 22.6933 175.579 22.352C175.216 22.0107 174.629 21.7013 173.819 21.424C173.029 21.1467 171.973 20.848 170.651 20.528C169.051 20.1867 167.685 19.7493 166.555 19.216C165.445 18.6613 164.603 17.9573 164.027 17.104C163.472 16.2293 163.195 15.152 163.195 13.872C163.195 12.592 163.547 11.4613 164.251 10.48C164.955 9.47733 165.947 8.69867 167.227 8.144C168.507 7.568 170.032 7.28 171.803 7.28C173.232 7.28 174.491 7.472 175.579 7.856C176.688 8.24 177.605 8.74133 178.331 9.36C179.077 9.97867 179.643 10.64 180.027 11.344C180.411 12.048 180.613 12.7307 180.635 13.392C180.635 13.5627 180.571 13.7227 180.443 13.872C180.315 14 180.155 14.064 179.963 14.064H176.379C176.165 14.064 175.973 14.0213 175.803 13.936C175.632 13.8507 175.493 13.7013 175.387 13.488C175.259 12.9333 174.875 12.4533 174.235 12.048C173.616 11.6213 172.805 11.408 171.803 11.408C170.757 11.408 169.925 11.6 169.307 11.984C168.709 12.368 168.411 12.9547 168.411 13.744C168.411 14.256 168.56 14.6933 168.859 15.056C169.179 15.3973 169.701 15.7067 170.427 15.984C171.173 16.24 172.155 16.528 173.371 16.848C175.248 17.232 176.773 17.6907 177.947 18.224C179.12 18.7573 179.984 19.4507 180.539 20.304C181.093 21.136 181.371 22.192 181.371 23.472C181.371 24.9013 180.965 26.128 180.155 27.152C179.365 28.176 178.267 28.9653 176.859 29.52C175.472 30.0533 173.851 30.32 171.995 30.32ZM185.606 30C185.371 30 185.179 29.9253 185.03 29.776C184.88 29.6267 184.806 29.4347 184.806 29.2V8.4C184.806 8.16533 184.88 7.97333 185.03 7.824C185.179 7.67467 185.371 7.6 185.606 7.6H193.638C195.771 7.6 197.552 7.94133 198.982 8.624C200.411 9.28533 201.499 10.2667 202.246 11.568C203.014 12.848 203.419 14.4373 203.462 16.336C203.483 17.2747 203.494 18.096 203.494 18.8C203.494 19.504 203.483 20.3147 203.462 21.232C203.398 23.216 203.003 24.8587 202.278 26.16C201.552 27.4613 200.486 28.432 199.078 29.072C197.67 29.6907 195.91 30 193.798 30H185.606ZM189.894 25.872H193.638C194.704 25.872 195.579 25.712 196.262 25.392C196.944 25.072 197.446 24.5707 197.766 23.888C198.107 23.184 198.288 22.2773 198.31 21.168C198.331 20.5493 198.342 19.9947 198.342 19.504C198.363 19.0133 198.363 18.5227 198.342 18.032C198.342 17.5413 198.331 16.9973 198.31 16.4C198.267 14.8 197.851 13.6267 197.062 12.88C196.294 12.112 195.099 11.728 193.478 11.728H189.894V25.872ZM208.293 30C208.058 30 207.866 29.9253 207.717 29.776C207.568 29.6267 207.493 29.4347 207.493 29.2V8.4C207.493 8.16533 207.568 7.97333 207.717 7.824C207.866 7.67467 208.058 7.6 208.293 7.6H211.685C211.92 7.6 212.112 7.67467 212.261 7.824C212.41 7.97333 212.485 8.16533 212.485 8.4V15.696L219.077 8.208C219.162 8.08 219.301 7.952 219.493 7.824C219.706 7.67467 219.984 7.6 220.325 7.6H224.197C224.389 7.6 224.549 7.67467 224.677 7.824C224.805 7.952 224.869 8.10133 224.869 8.272C224.869 8.42133 224.826 8.54933 224.741 8.656L216.517 18.32L225.349 28.944C225.434 29.0293 225.477 29.1573 225.477 29.328C225.477 29.4987 225.413 29.6587 225.285 29.808C225.157 29.936 224.997 30 224.805 30H220.805C220.421 30 220.133 29.9147 219.941 29.744C219.749 29.5733 219.621 29.456 219.557 29.392L212.485 21.2V29.2C212.485 29.4347 212.41 29.6267 212.261 29.776C212.112 29.9253 211.92 30 211.685 30H208.293Z" fill="#1E2362"/>
<path d="M17 20.48C18.6569 20.48 20 21.7694 20 23.36V24.32C20 28.1052 16.281 32 10 32C3.71902 32 0 28.1052 0 24.32V23.36C0 21.7694 1.34315 20.48 3 20.48H17ZM10 8C13.0376 8 15.5 10.3639 15.5 13.28C15.5 16.1961 13.0376 18.56 10 18.56C6.96243 18.56 4.5 16.1961 4.5 13.28C4.5 10.3639 6.96243 8 10 8Z" fill="#4343EF"/>
<path d="M25 20.48C26.6569 20.48 28 21.7694 28 23.36V24.32C28 28.1052 24.281 32 18 32C11.719 32 8 28.1052 8 24.32V23.36C8 21.7694 9.34315 20.48 11 20.48H25ZM18 8C21.0376 8 23.5 10.3639 23.5 13.28C23.5 16.1961 21.0376 18.56 18 18.56C14.9624 18.56 12.5 16.1961 12.5 13.28C12.5 10.3639 14.9624 8 18 8Z" fill="#F76A3E"/>
<path d="M33 20.48C34.6569 20.48 36 21.7694 36 23.36V24.32C36 28.1052 32.281 32 26 32C19.719 32 16 28.1052 16 24.32V23.36C16 21.7694 17.3431 20.48 19 20.48H33ZM26 8C29.0376 8 31.5 10.3639 31.5 13.28C31.5 16.1961 29.0376 18.56 26 18.56C22.9624 18.56 20.5 16.1961 20.5 13.28C20.5 10.3639 22.9624 8 26 8Z" fill="#FFCD1D"/>
</svg>
